<mxfile host="app.diagrams.net" agent="Mozilla/5.0 (Windows NT 10.0; Win64; x64) AppleWebKit/537.36 (KHTML, like Gecko) Chrome/132.0.0.0 Safari/537.36 Edg/132.0.0.0" version="26.0.8">
  <diagram name="PÃ¡gina-1" id="iqUUks8t2Q8I136JnVJt">
    <mxGraphModel dx="872" dy="435" grid="1" gridSize="10" guides="1" tooltips="1" connect="1" arrows="1" fold="1" page="1" pageScale="1" pageWidth="827" pageHeight="1169" math="0" shadow="0">
      <root>
        <mxCell id="0" />
        <mxCell id="1" parent="0" />
        <mxCell id="TN9PWcfvkDuZf21Uoujx-35" style="edgeStyle=orthogonalEdgeStyle;rounded=0;orthogonalLoop=1;jettySize=auto;html=1;entryX=0.5;entryY=0;entryDx=0;entryDy=0;endArrow=none;startFill=0;" edge="1" parent="1" source="TN9PWcfvkDuZf21Uoujx-1" target="TN9PWcfvkDuZf21Uoujx-33">
          <mxGeometry relative="1" as="geometry" />
        </mxCell>
        <mxCell id="TN9PWcfvkDuZf21Uoujx-1" value="Clone Trooper" style="swimlane;fontStyle=0;childLayout=stackLayout;horizontal=1;startSize=30;horizontalStack=0;resizeParent=1;resizeParentMax=0;resizeLast=0;collapsible=1;marginBottom=0;whiteSpace=wrap;html=1;fillColor=#e1d5e7;strokeColor=#9673a6;" vertex="1" parent="1">
          <mxGeometry x="100" y="20" width="190" height="140" as="geometry" />
        </mxCell>
        <mxCell id="TN9PWcfvkDuZf21Uoujx-2" value="Id&lt;div&gt;Name&lt;/div&gt;&lt;div&gt;Militray Rank&lt;/div&gt;&lt;div&gt;Division&lt;/div&gt;&lt;div&gt;Status&lt;/div&gt;&lt;div&gt;&lt;br&gt;&lt;/div&gt;" style="text;strokeColor=none;fillColor=none;align=left;verticalAlign=middle;spacingLeft=4;spacingRight=4;overflow=hidden;points=[[0,0.5],[1,0.5]];portConstraint=eastwest;rotatable=0;whiteSpace=wrap;html=1;" vertex="1" parent="TN9PWcfvkDuZf21Uoujx-1">
          <mxGeometry y="30" width="190" height="110" as="geometry" />
        </mxCell>
        <mxCell id="TN9PWcfvkDuZf21Uoujx-14" value="Division" style="swimlane;fontStyle=0;childLayout=stackLayout;horizontal=1;startSize=30;horizontalStack=0;resizeParent=1;resizeParentMax=0;resizeLast=0;collapsible=1;marginBottom=0;whiteSpace=wrap;html=1;fillColor=#dae8fc;strokeColor=#6c8ebf;" vertex="1" parent="1">
          <mxGeometry x="450" y="20" width="190" height="140" as="geometry" />
        </mxCell>
        <mxCell id="TN9PWcfvkDuZf21Uoujx-15" value="Id&lt;div&gt;Name&lt;/div&gt;" style="text;strokeColor=none;fillColor=none;align=left;verticalAlign=middle;spacingLeft=4;spacingRight=4;overflow=hidden;points=[[0,0.5],[1,0.5]];portConstraint=eastwest;rotatable=0;whiteSpace=wrap;html=1;" vertex="1" parent="TN9PWcfvkDuZf21Uoujx-14">
          <mxGeometry y="30" width="190" height="110" as="geometry" />
        </mxCell>
        <mxCell id="TN9PWcfvkDuZf21Uoujx-12" value="Jedi&amp;nbsp;" style="swimlane;fontStyle=0;childLayout=stackLayout;horizontal=1;startSize=30;horizontalStack=0;resizeParent=1;resizeParentMax=0;resizeLast=0;collapsible=1;marginBottom=0;whiteSpace=wrap;html=1;fillColor=#e1d5e7;strokeColor=#9673a6;" vertex="1" parent="1">
          <mxGeometry x="610" y="210" width="190" height="140" as="geometry" />
        </mxCell>
        <mxCell id="TN9PWcfvkDuZf21Uoujx-13" value="Id&lt;div&gt;Name&lt;/div&gt;&lt;div&gt;Jedi Rank&lt;/div&gt;&lt;div&gt;&lt;span style=&quot;background-color: transparent; color: light-dark(rgb(0, 0, 0), rgb(255, 255, 255));&quot;&gt;Division&lt;/span&gt;&lt;/div&gt;" style="text;strokeColor=none;fillColor=none;align=left;verticalAlign=middle;spacingLeft=4;spacingRight=4;overflow=hidden;points=[[0,0.5],[1,0.5]];portConstraint=eastwest;rotatable=0;whiteSpace=wrap;html=1;" vertex="1" parent="TN9PWcfvkDuZf21Uoujx-12">
          <mxGeometry y="30" width="190" height="110" as="geometry" />
        </mxCell>
        <mxCell id="TN9PWcfvkDuZf21Uoujx-16" style="edgeStyle=orthogonalEdgeStyle;rounded=0;orthogonalLoop=1;jettySize=auto;html=1;entryX=0;entryY=0.5;entryDx=0;entryDy=0;endArrow=none;startFill=0;" edge="1" parent="1" source="TN9PWcfvkDuZf21Uoujx-2" target="TN9PWcfvkDuZf21Uoujx-15">
          <mxGeometry relative="1" as="geometry">
            <mxPoint x="430" y="90" as="targetPoint" />
          </mxGeometry>
        </mxCell>
        <mxCell id="TN9PWcfvkDuZf21Uoujx-19" value="1" style="text;html=1;align=center;verticalAlign=middle;resizable=0;points=[];autosize=1;strokeColor=none;fillColor=none;" vertex="1" parent="1">
          <mxGeometry x="410" y="75" width="30" height="30" as="geometry" />
        </mxCell>
        <mxCell id="TN9PWcfvkDuZf21Uoujx-21" value="1" style="text;html=1;align=center;verticalAlign=middle;resizable=0;points=[];autosize=1;strokeColor=none;fillColor=none;" vertex="1" parent="1">
          <mxGeometry x="290" y="75" width="30" height="30" as="geometry" />
        </mxCell>
        <mxCell id="TN9PWcfvkDuZf21Uoujx-22" value="1" style="text;html=1;align=center;verticalAlign=middle;resizable=0;points=[];autosize=1;strokeColor=none;fillColor=none;" vertex="1" parent="1">
          <mxGeometry x="414" y="105" width="30" height="30" as="geometry" />
        </mxCell>
        <mxCell id="TN9PWcfvkDuZf21Uoujx-23" value="M" style="text;html=1;align=center;verticalAlign=middle;resizable=0;points=[];autosize=1;strokeColor=none;fillColor=none;" vertex="1" parent="1">
          <mxGeometry x="290" y="105" width="30" height="30" as="geometry" />
        </mxCell>
        <mxCell id="TN9PWcfvkDuZf21Uoujx-25" value="M:1" style="text;html=1;align=center;verticalAlign=middle;resizable=0;points=[];autosize=1;strokeColor=none;fillColor=none;fontStyle=1" vertex="1" parent="1">
          <mxGeometry x="350" y="70" width="40" height="30" as="geometry" />
        </mxCell>
        <mxCell id="TN9PWcfvkDuZf21Uoujx-26" style="edgeStyle=orthogonalEdgeStyle;rounded=0;orthogonalLoop=1;jettySize=auto;html=1;exitX=1;exitY=0.5;exitDx=0;exitDy=0;endArrow=none;startFill=0;" edge="1" parent="1" source="TN9PWcfvkDuZf21Uoujx-15" target="TN9PWcfvkDuZf21Uoujx-12">
          <mxGeometry relative="1" as="geometry" />
        </mxCell>
        <mxCell id="TN9PWcfvkDuZf21Uoujx-27" value="1" style="text;html=1;align=center;verticalAlign=middle;resizable=0;points=[];autosize=1;strokeColor=none;fillColor=none;" vertex="1" parent="1">
          <mxGeometry x="640" y="75" width="30" height="30" as="geometry" />
        </mxCell>
        <mxCell id="TN9PWcfvkDuZf21Uoujx-28" value="M" style="text;html=1;align=center;verticalAlign=middle;resizable=0;points=[];autosize=1;strokeColor=none;fillColor=none;" vertex="1" parent="1">
          <mxGeometry x="710" y="180" width="30" height="30" as="geometry" />
        </mxCell>
        <mxCell id="TN9PWcfvkDuZf21Uoujx-29" value="1" style="text;html=1;align=center;verticalAlign=middle;resizable=0;points=[];autosize=1;strokeColor=none;fillColor=none;" vertex="1" parent="1">
          <mxGeometry x="670" y="180" width="30" height="30" as="geometry" />
        </mxCell>
        <mxCell id="TN9PWcfvkDuZf21Uoujx-30" value="1" style="text;html=1;align=center;verticalAlign=middle;resizable=0;points=[];autosize=1;strokeColor=none;fillColor=none;" vertex="1" parent="1">
          <mxGeometry x="640" y="105" width="30" height="30" as="geometry" />
        </mxCell>
        <mxCell id="TN9PWcfvkDuZf21Uoujx-32" value="1:M" style="text;html=1;align=center;verticalAlign=middle;resizable=0;points=[];autosize=1;strokeColor=none;fillColor=none;fontStyle=1" vertex="1" parent="1">
          <mxGeometry x="720" y="100" width="40" height="30" as="geometry" />
        </mxCell>
        <mxCell id="TN9PWcfvkDuZf21Uoujx-33" value="Status" style="swimlane;fontStyle=0;childLayout=stackLayout;horizontal=1;startSize=30;horizontalStack=0;resizeParent=1;resizeParentMax=0;resizeLast=0;collapsible=1;marginBottom=0;whiteSpace=wrap;html=1;fillColor=#f8cecc;strokeColor=#b85450;" vertex="1" parent="1">
          <mxGeometry x="100" y="290" width="190" height="140" as="geometry" />
        </mxCell>
        <mxCell id="TN9PWcfvkDuZf21Uoujx-34" value="Id&lt;div&gt;Name&lt;/div&gt;&lt;div&gt;&lt;br&gt;&lt;/div&gt;&lt;div&gt;&lt;br&gt;&lt;/div&gt;" style="text;strokeColor=none;fillColor=none;align=left;verticalAlign=middle;spacingLeft=4;spacingRight=4;overflow=hidden;points=[[0,0.5],[1,0.5]];portConstraint=eastwest;rotatable=0;whiteSpace=wrap;html=1;" vertex="1" parent="TN9PWcfvkDuZf21Uoujx-33">
          <mxGeometry y="30" width="190" height="110" as="geometry" />
        </mxCell>
        <mxCell id="TN9PWcfvkDuZf21Uoujx-36" value="1" style="text;html=1;align=center;verticalAlign=middle;resizable=0;points=[];autosize=1;strokeColor=none;fillColor=none;" vertex="1" parent="1">
          <mxGeometry x="200" y="160" width="30" height="30" as="geometry" />
        </mxCell>
        <mxCell id="TN9PWcfvkDuZf21Uoujx-37" value="1" style="text;html=1;align=center;verticalAlign=middle;resizable=0;points=[];autosize=1;strokeColor=none;fillColor=none;" vertex="1" parent="1">
          <mxGeometry x="200" y="260" width="30" height="30" as="geometry" />
        </mxCell>
        <mxCell id="TN9PWcfvkDuZf21Uoujx-38" value="1" style="text;html=1;align=center;verticalAlign=middle;resizable=0;points=[];autosize=1;strokeColor=none;fillColor=none;" vertex="1" parent="1">
          <mxGeometry x="160" y="260" width="30" height="30" as="geometry" />
        </mxCell>
        <mxCell id="TN9PWcfvkDuZf21Uoujx-39" value="M" style="text;html=1;align=center;verticalAlign=middle;resizable=0;points=[];autosize=1;strokeColor=none;fillColor=none;" vertex="1" parent="1">
          <mxGeometry x="160" y="160" width="30" height="30" as="geometry" />
        </mxCell>
        <mxCell id="TN9PWcfvkDuZf21Uoujx-40" value="1:M" style="text;html=1;align=center;verticalAlign=middle;resizable=0;points=[];autosize=1;strokeColor=none;fillColor=none;fontStyle=1" vertex="1" parent="1">
          <mxGeometry x="130" y="218" width="40" height="30" as="geometry" />
        </mxCell>
        <mxCell id="TN9PWcfvkDuZf21Uoujx-41" value="Jedi Rank" style="swimlane;fontStyle=0;childLayout=stackLayout;horizontal=1;startSize=30;horizontalStack=0;resizeParent=1;resizeParentMax=0;resizeLast=0;collapsible=1;marginBottom=0;whiteSpace=wrap;html=1;fillColor=#f8cecc;strokeColor=#b85450;" vertex="1" parent="1">
          <mxGeometry x="570" y="445" width="190" height="140" as="geometry" />
        </mxCell>
        <mxCell id="TN9PWcfvkDuZf21Uoujx-42" value="Id&lt;div&gt;Name&lt;/div&gt;&lt;div&gt;&lt;br&gt;&lt;/div&gt;" style="text;strokeColor=none;fillColor=none;align=left;verticalAlign=middle;spacingLeft=4;spacingRight=4;overflow=hidden;points=[[0,0.5],[1,0.5]];portConstraint=eastwest;rotatable=0;whiteSpace=wrap;html=1;" vertex="1" parent="TN9PWcfvkDuZf21Uoujx-41">
          <mxGeometry y="30" width="190" height="110" as="geometry" />
        </mxCell>
        <mxCell id="TN9PWcfvkDuZf21Uoujx-43" style="edgeStyle=orthogonalEdgeStyle;rounded=0;orthogonalLoop=1;jettySize=auto;html=1;entryX=0.468;entryY=1;entryDx=0;entryDy=0;entryPerimeter=0;endArrow=none;startFill=0;" edge="1" parent="1" source="TN9PWcfvkDuZf21Uoujx-41" target="TN9PWcfvkDuZf21Uoujx-13">
          <mxGeometry relative="1" as="geometry" />
        </mxCell>
        <mxCell id="TN9PWcfvkDuZf21Uoujx-44" value="1:M" style="text;html=1;align=center;verticalAlign=middle;resizable=0;points=[];autosize=1;strokeColor=none;fillColor=none;fontStyle=1" vertex="1" parent="1">
          <mxGeometry x="610" y="380" width="40" height="30" as="geometry" />
        </mxCell>
        <mxCell id="TN9PWcfvkDuZf21Uoujx-47" value="1Â° table" style="rounded=0;whiteSpace=wrap;html=1;fillColor=#dae8fc;strokeColor=#6c8ebf;" vertex="1" parent="1">
          <mxGeometry x="369" y="210" width="91" height="30" as="geometry" />
        </mxCell>
        <mxCell id="TN9PWcfvkDuZf21Uoujx-48" value="2Â° table" style="rounded=0;whiteSpace=wrap;html=1;fillColor=#f8cecc;strokeColor=#b85450;" vertex="1" parent="1">
          <mxGeometry x="369" y="248" width="91" height="30" as="geometry" />
        </mxCell>
        <mxCell id="TN9PWcfvkDuZf21Uoujx-49" value="3Â° table" style="rounded=0;whiteSpace=wrap;html=1;fillColor=#e1d5e7;strokeColor=#9673a6;" vertex="1" parent="1">
          <mxGeometry x="369" y="290" width="91" height="30" as="geometry" />
        </mxCell>
      </root>
    </mxGraphModel>
  </diagram>
</mxfile>
